<mxfile host="Electron" modified="2021-05-20T16:04:33.720Z" agent="5.0 (X11; Linux x86_64) AppleWebKit/537.36 (KHTML, like Gecko) draw.io/14.5.1 Chrome/89.0.4389.128 Electron/12.0.7 Safari/537.36" etag="KtC6QJ_gM1tSjTdE4nF3" compressed="false" version="14.5.1" type="device">
  <diagram id="xGZWrtGbMUi3LLFO6nGx" name="Page-1">
    <mxGraphModel dx="813" dy="486" grid="1" gridSize="10" guides="1" tooltips="1" connect="1" arrows="1" fold="1" page="1" pageScale="1" pageWidth="1169" pageHeight="827" background="none" math="0" shadow="0">
      <root>
        <object label="" id="0">
          <mxCell />
        </object>
        <mxCell id="1" parent="0" />
        <mxCell id="_Ey62GqWxk7FuY_N8qZZ-1" value="Web App" style="swimlane;html=1;horizontal=0;startSize=20;fontSize=14;" vertex="1" parent="1">
          <mxGeometry x="20" y="10" width="760" height="220" as="geometry" />
        </mxCell>
        <mxCell id="_Ey62GqWxk7FuY_N8qZZ-7" value="Request the Service to Lock on some path" style="shape=ext;rounded=1;html=1;whiteSpace=wrap;fontSize=14;" vertex="1" parent="_Ey62GqWxk7FuY_N8qZZ-1">
          <mxGeometry x="80" y="40" width="110" height="80" as="geometry" />
        </mxCell>
        <mxCell id="_Ey62GqWxk7FuY_N8qZZ-18" value="" style="group" vertex="1" connectable="0" parent="_Ey62GqWxk7FuY_N8qZZ-1">
          <mxGeometry x="140" y="130" width="130" height="60" as="geometry" />
        </mxCell>
        <mxCell id="_Ey62GqWxk7FuY_N8qZZ-14" value="" style="shape=note;whiteSpace=wrap;size=16;html=1;dropTarget=0;fontSize=14;" vertex="1" parent="_Ey62GqWxk7FuY_N8qZZ-18">
          <mxGeometry width="40" height="60" as="geometry" />
        </mxCell>
        <mxCell id="_Ey62GqWxk7FuY_N8qZZ-15" value="" style="html=1;shape=singleArrow;arrowWidth=0.4;arrowSize=0.4;outlineConnect=0;" vertex="1" parent="_Ey62GqWxk7FuY_N8qZZ-14">
          <mxGeometry width="14" height="14" relative="1" as="geometry">
            <mxPoint x="2" y="2" as="offset" />
          </mxGeometry>
        </mxCell>
        <mxCell id="_Ey62GqWxk7FuY_N8qZZ-16" value="" style="html=1;whiteSpace=wrap;shape=parallelMarker;outlineConnect=0;" vertex="1" parent="_Ey62GqWxk7FuY_N8qZZ-14">
          <mxGeometry x="0.5" y="1" width="14" height="14" relative="1" as="geometry">
            <mxPoint x="-7" y="-14" as="offset" />
          </mxGeometry>
        </mxCell>
        <mxCell id="_Ey62GqWxk7FuY_N8qZZ-17" value="Path&lt;br&gt;&lt;div&gt;&lt;span&gt;Session key&lt;/span&gt;&lt;/div&gt;" style="text;html=1;align=left;verticalAlign=middle;resizable=0;points=[];autosize=1;fontSize=14;" vertex="1" parent="_Ey62GqWxk7FuY_N8qZZ-18">
          <mxGeometry x="40" y="10" width="90" height="40" as="geometry" />
        </mxCell>
        <mxCell id="_Ey62GqWxk7FuY_N8qZZ-4" value="Delivery Layer" style="swimlane;html=1;horizontal=0;startSize=20;fontSize=14;" vertex="1" parent="1">
          <mxGeometry x="20" y="310" width="760" height="220" as="geometry" />
        </mxCell>
        <mxCell id="_Ey62GqWxk7FuY_N8qZZ-19" style="edgeStyle=orthogonalEdgeStyle;rounded=0;orthogonalLoop=1;jettySize=auto;html=1;entryX=0;entryY=0.5;entryDx=0;entryDy=0;fontSize=14;" edge="1" parent="_Ey62GqWxk7FuY_N8qZZ-4" source="_Ey62GqWxk7FuY_N8qZZ-8" target="_Ey62GqWxk7FuY_N8qZZ-11">
          <mxGeometry relative="1" as="geometry" />
        </mxCell>
        <mxCell id="_Ey62GqWxk7FuY_N8qZZ-8" value="Checks does required path is locked already" style="shape=ext;rounded=1;html=1;whiteSpace=wrap;fontSize=14;" vertex="1" parent="_Ey62GqWxk7FuY_N8qZZ-4">
          <mxGeometry x="80" y="60" width="110" height="80" as="geometry" />
        </mxCell>
        <mxCell id="_Ey62GqWxk7FuY_N8qZZ-11" value="" style="shape=mxgraph.bpmn.shape;html=1;verticalLabelPosition=bottom;labelBackgroundColor=#ffffff;verticalAlign=top;align=center;perimeter=rhombusPerimeter;background=gateway;outlineConnect=0;outline=none;symbol=exclusiveGw;fontSize=14;" vertex="1" parent="_Ey62GqWxk7FuY_N8qZZ-4">
          <mxGeometry x="250" y="75" width="50" height="50" as="geometry" />
        </mxCell>
        <mxCell id="_Ey62GqWxk7FuY_N8qZZ-5" value="Thread Layer" style="swimlane;html=1;horizontal=0;startSize=20;fontSize=14;" vertex="1" parent="1">
          <mxGeometry x="20" y="560" width="760" height="220" as="geometry" />
        </mxCell>
        <mxCell id="_Ey62GqWxk7FuY_N8qZZ-9" value="" style="endArrow=none;dashed=1;html=1;dashPattern=1 3;strokeWidth=2;fontSize=14;" edge="1" parent="1">
          <mxGeometry width="50" height="50" relative="1" as="geometry">
            <mxPoint x="20" y="270" as="sourcePoint" />
            <mxPoint x="800" y="270" as="targetPoint" />
          </mxGeometry>
        </mxCell>
        <mxCell id="_Ey62GqWxk7FuY_N8qZZ-10" value="Service" style="edgeLabel;html=1;align=center;verticalAlign=middle;resizable=0;points=[];fontSize=14;" vertex="1" connectable="0" parent="_Ey62GqWxk7FuY_N8qZZ-9">
          <mxGeometry x="-0.122" y="2" relative="1" as="geometry">
            <mxPoint x="-302.29" as="offset" />
          </mxGeometry>
        </mxCell>
        <mxCell id="_Ey62GqWxk7FuY_N8qZZ-13" style="edgeStyle=orthogonalEdgeStyle;rounded=0;orthogonalLoop=1;jettySize=auto;html=1;entryX=0.5;entryY=0;entryDx=0;entryDy=0;fontSize=14;" edge="1" parent="1" source="_Ey62GqWxk7FuY_N8qZZ-7" target="_Ey62GqWxk7FuY_N8qZZ-8">
          <mxGeometry relative="1" as="geometry" />
        </mxCell>
      </root>
    </mxGraphModel>
  </diagram>
</mxfile>
